<?xml version="1.0" standalone="no"?>
<!DOCTYPE svg PUBLIC "-//W3C//DTD SVG 20010904//EN"
 "http://www.w3.org/TR/2001/REC-SVG-20010904/DTD/svg10.dtd">
<svg version="1.0" xmlns="http://www.w3.org/2000/svg"
 width="1640.000000pt" height="2360.000000pt" viewBox="0 0 1640.000000 2360.000000"
 preserveAspectRatio="xMidYMid meet">

<g transform="translate(0.000000,2360.000000) scale(0.100000,-0.100000)"
fill="#000000" stroke="none">
<path d="M2151 19330 c-83 -9 -193 -58 -219 -98 -16 -24 -16 -37 -9 -140 5
-61 17 -84 566 -1055 308 -546 563 -1000 566 -1009 4 -9 1 -26 -5 -38 -27 -51
13 -81 142 -105 71 -14 267 -18 1328 -26 685 -5 1754 -13 2375 -18 622 -5
1400 -11 1730 -13 578 -4 604 -5 698 -26 736 -168 1293 -564 1551 -1102 262
-547 138 -1158 -330 -1626 -89 -89 -235 -208 -305 -249 -19 -10 -53 -25 -76
-32 -40 -13 -98 -84 -1074 -1316 -568 -716 -1041 -1316 -1051 -1333 -10 -18
-20 -54 -21 -82 -2 -44 2 -55 30 -89 33 -38 825 -1218 2088 -3108 367 -550
679 -1012 692 -1026 13 -14 56 -38 96 -54 68 -27 80 -28 212 -27 77 1 889 9
1805 17 916 9 1685 18 1709 21 91 12 128 94 78 176 -12 21 -427 662 -921 1425
-1798 2773 -2037 3145 -2033 3157 3 6 76 29 163 50 496 121 983 340 1385 622
186 131 319 244 495 419 322 321 522 601 713 997 628 1298 400 2846 -597 4048
-199 240 -517 537 -789 737 -341 252 -838 520 -1079 583 -40 10 -107 36 -150
58 -44 21 -113 49 -154 62 -41 12 -95 32 -120 45 -25 12 -72 28 -105 35 -33 6
-109 25 -170 41 -60 16 -130 29 -155 29 -25 0 -144 12 -265 26 -306 36 -687
43 -1030 19 -221 -15 -359 -17 -1190 -11 -517 3 -1984 8 -3260 11 -1276 3
-2527 7 -2780 9 -253 2 -493 1 -534 -4z"/>
<path d="M3802 13455 c-57 -25 -75 -101 -35 -147 12 -13 14 -31 9 -75 -5 -44
-123 -5011 -151 -6353 -5 -259 -3 -270 53 -303 31 -18 55 -19 931 -8 495 6
909 15 923 20 36 14 88 61 100 90 6 16 19 919 34 2384 13 1297 27 2364 31
2371 5 8 343 401 753 875 410 474 751 873 758 887 11 22 24 120 23 182 -1 34
-18 60 -51 77 -26 13 -227 15 -1687 15 -1414 -1 -1663 -3 -1691 -15z"/>
</g>
</svg>
